<svg width="22" height="22" viewBox="0 0 22 22" fill="none" xmlns="http://www.w3.org/2000/svg">
<path fill-rule="evenodd" clip-rule="evenodd" d="M11 21.75C5.06294 21.75 0.25 16.9371 0.25 11C0.25 5.06294 5.06294 0.25 11 0.25C16.9371 0.25 21.75 5.06294 21.75 11C21.75 16.9371 16.9371 21.75 11 21.75ZM15.48 8.37756C15.9645 8.11257 16.1425 7.50493 15.8775 7.02038C15.6125 6.53582 15.0049 6.35782 14.5204 6.62282C12.6917 7.62286 11.1796 9.5529 10.1629 11.1096C9.7872 11.685 9.4662 12.2297 9.2094 12.6911C8.96984 12.4587 8.73258 12.257 8.52038 12.0892C8.2427 11.8697 7.99282 11.6965 7.81063 11.5772L7.49559 11.3815C7.01585 11.1079 6.40513 11.275 6.13152 11.7548C5.85797 12.2344 6.02493 12.8449 6.50442 13.1187L6.71471 13.2502C6.85752 13.3437 7.05764 13.4823 7.27997 13.6581C7.73753 14.0198 8.23126 14.494 8.54198 15.0135C8.73267 15.3323 9.0844 15.5191 9.4553 15.4987C9.8261 15.4782 10.1551 15.2536 10.3096 14.9159L10.4079 14.7105C10.4756 14.5721 10.577 14.3697 10.709 14.1204C10.9735 13.6207 11.3581 12.9372 11.8374 12.2032C12.8208 10.6975 14.1086 9.1275 15.48 8.37756Z" fill="#F3541C"/>
</svg>
